PathFileType	4	(x/y/z)	A01_PREF_T0017.trc
DataRate	CameraRate	NumFrames	NumMarkers	Units	OrigDataRate	OrigDataStartFrame	OrigNumFrames
240	240	8	48	mm	240	116	309
Frame#	Time	TOP_HEAD			R_AC			L_AC			R_ASIS			L_ASIS			R_PSIS			L_PSIS			SACRAL			L_IC			R_IC			L_GT			R_GT			R_LAT_KNEE			R_MED_KNEE			L_MED_KNEE			L_LAT_KNEE			R_TOE			L_TOE			R_1ST_MET			L_1ST_MET			L_5TH_MET			R_5TH_MET			R_LAT_ANK			R_MED_ANK			L_MED_ANK			L_LAT_ANK			L_HEEL_SUP			R_HEEL_SUP			L_HEEL_LAT			R_HEEL_LAT			L_HEEL_MED			R_HEEL_MED			R_LL_PROX_POST			R_LL_PROX_ANT			R_LL_DIST_ANT			R_LL_DIST_POST			R_THIGH_PROX_POST			R_THIGH_PROX_ANT			R_THIGH_DIST_ANT			R_THIGH_DIST_POST			L_PROS_PROX_ANT			L_PROS_PROX_POST			L_PROS_DIST_POST			L_PROS_DIST_ANT			L_THIGH_PROX_ANT			L_THIGH_PROX_POST			L_THIGH_DIST_POST			L_THIGH_DIST_ANT			
		X1	Y1	Z1	X2	Y2	Z2	X3	Y3	Z3	X4	Y4	Z4	X5	Y5	Z5	X6	Y6	Z6	X7	Y7	Z7	X8	Y8	Z8	X9	Y9	Z9	X10	Y10	Z10	X11	Y11	Z11	X12	Y12	Z12	X13	Y13	Z13	X14	Y14	Z14	X15	Y15	Z15	X16	Y16	Z16	X17	Y17	Z17	X18	Y18	Z18	X19	Y19	Z19	X20	Y20	Z20	X21	Y21	Z21	X22	Y22	Z22	X23	Y23	Z23	X24	Y24	Z24	X25	Y25	Z25	X26	Y26	Z26	X27	Y27	Z27	X28	Y28	Z28	X29	Y29	Z29	X30	Y30	Z30	X31	Y31	Z31	X32	Y32	Z32	X33	Y33	Z33	X34	Y34	Z34	X35	Y35	Z35	X36	Y36	Z36	X37	Y37	Z37	X38	Y38	Z38	X39	Y39	Z39	X40	Y40	Z40	X41	Y41	Z41	X42	Y42	Z42	X43	Y43	Z43	X44	Y44	Z44	X45	Y45	Z45	X46	Y46	Z46	X47	Y47	Z47	X48	Y48	Z48	

116	0.48072	67.001	1749.6	303.38	-194.74	1568.3	508.2	-160.27	1555.3	49.597	-202.05	1103.2	491.84	-173.02	1027.5	144.11	-405.8	1091.6	354.91	-389.61	1100.4	222.63	-413.84	1066	286.95	-190.61	1151.2	102.79	-240.94	1202.1	497.52	-243.34	952.4	104.95	-251.74	991.9	535.53	-112.28	601.03	496.89	-67.46	599.57	370.19	-271.34	560.37	345.09	-286.85	563.1	187.24	69.204	107.24	434.64	-206.84	78.634	272.55	-8.2996	81.264	381.81	-290.03	56.458	324.91	-315.96	47.734	197.35	-46.769	75.87	510.14	-165.88	135.97	474.77	-146.71	142.81	374.1	-401.87	139.29	301.16	-432.53	133.17	233.53	-527.72	90.77	273.49	-254.74	94.784	407.32	-518.75	61.313	242.19	-249.63	73.027	443.61	-509.95	59.828	306.07	-241.56	68.013	384.21	-216.31	434	490.09	-151.02	420.48	519.65	-151.86	345.75	505.68	-204.49	351.54	486.45	-232.29	843.76	522.6	-176.2	887	528.01	-139.11	803.47	525.53	-194.3	762.75	517.53	-259.35	473.5	205.07	-312.93	484.34	192.22	-332.45	425.4	203.02	-279.05	421.62	213.89	-198.62	807.27	150.81	-266.97	819.86	132.74	-265.09	744.69	148.64	-202.19	734.08	164.84
117	0.4849	72.565	1748.9	303.97	-189.39	1567.9	508.56	-154.6	1555	50.04	-196.59	1102.7	492.15	-168.18	1027	144.36	-400.61	1091.3	355.49	-384.58	1100.2	223.19	-408.77	1065.7	287.51	-185.64	1150.8	103.12	-235.79	1201.5	497.92	-238.81	952.04	105.2	-246.21	991.31	535.88	-106.07	600.61	496.09	-61.611	599.61	369.29	-269.14	560.09	345.34	-284.56	562.89	187.46	86.027	110.59	434.4	-206.68	78.501	272.57	9.0649	82.948	381.65	-289.88	56.432	324.86	-315.89	47.773	197.36	-29.163	76.701	510.03	-149.57	134.12	474.72	-130.66	141.43	374.04	-401.36	139.61	301.19	-432.1	133.61	233.54	-527.51	91.228	273.46	-237.54	90.988	407.31	-518.63	61.752	242.17	-231.97	69.349	443.66	-509.83	60.272	306.05	-223.82	64.535	384.31	-206.81	431.23	489.56	-141.25	419.18	519.15	-140.45	344.43	505.28	-193.17	349.04	486.01	-226.72	843.1	522.52	-170.56	886.4	528.04	-133.42	802.91	525.19	-188.58	762.16	517.09	-257.43	473.19	205.25	-310.95	484.27	192.38	-330.74	425.41	203.16	-277.36	421.39	214.04	-194.89	806.73	151.04	-263.16	819.66	133	-261.61	744.48	148.86	-198.82	733.58	165.03
118	0.48908	78.14	1748.1	304.57	-184.02	1567.4	508.93	-148.93	1554.6	50.493	-191.1	1102.1	492.47	-163.33	1026.4	144.6	-395.38	1090.9	356.09	-379.53	1099.9	223.79	-403.69	1065.4	288.11	-180.65	1150.3	103.44	-230.6	1200.9	498.34	-234.27	951.65	105.46	-240.66	990.67	536.25	-99.973	600.12	495.29	-55.845	599.58	368.39	-266.93	559.8	345.58	-282.27	562.67	187.67	102.66	114.12	434.15	-206.52	78.366	272.6	26.279	84.825	381.47	-289.73	56.408	324.82	-315.81	47.814	197.38	-11.691	77.709	509.89	-133.33	132.45	474.66	-114.68	140.21	373.98	-400.85	139.92	301.22	-431.66	134.05	233.54	-527.29	91.696	273.43	-220.37	87.386	407.28	-518.5	62.2	242.15	-214.34	65.868	443.67	-509.72	60.725	306.03	-206.11	61.264	384.38	-197.35	428.48	489	-131.58	417.89	518.64	-129.13	343.16	504.86	-181.91	346.59	485.55	-221.22	842.4	522.43	-164.96	885.71	528.08	-127.78	802.27	524.86	-182.92	761.5	516.65	-255.51	472.88	205.42	-308.98	484.2	192.54	-329.02	425.42	203.3	-275.66	421.16	214.2	-191.15	806.17	151.27	-259.35	819.45	133.27	-258.14	744.26	149.08	-195.46	733.06	165.21
119	0.49326	83.725	1747.4	305.18	-178.64	1566.9	509.3	-143.27	1554.3	50.957	-185.56	1101.5	492.81	-158.48	1025.8	144.85	-390.12	1090.5	356.73	-374.45	1099.6	224.41	-398.57	1065.1	288.73	-175.66	1149.8	103.76	-225.36	1200.3	498.77	-229.74	951.25	105.72	-235.09	989.99	536.62	-93.976	599.56	494.48	-50.163	599.46	367.49	-264.7	559.49	345.8	-279.97	562.43	187.88	119.09	117.81	433.91	-206.36	78.228	272.63	43.333	86.893	381.29	-289.59	56.387	324.78	-315.73	47.855	197.39	5.638	78.896	509.75	-117.19	130.93	474.59	-98.788	139.16	373.91	-400.33	140.24	301.24	-431.22	134.49	233.55	-527.07	92.174	273.4	-203.24	83.978	407.23	-518.37	62.657	242.12	-196.74	62.585	443.67	-509.6	61.19	306.01	-188.44	58.2	384.42	-187.94	425.74	488.4	-121.99	416.61	518.1	-117.9	341.93	504.42	-170.72	344.2	485.05	-215.76	841.64	522.34	-159.4	884.96	528.14	-122.2	801.54	524.54	-177.33	760.78	516.21	-253.59	472.56	205.59	-307	484.12	192.7	-327.31	425.43	203.43	-273.96	420.91	214.34	-187.42	805.6	151.5	-255.54	819.22	133.54	-254.68	744.03	149.29	-192.1	732.53	165.38
120	0.49744	89.323	1746.6	305.8	-173.24	1566.4	509.68	-137.6	1553.9	51.434	-179.98	1100.8	493.15	-153.62	1025.2	145.1	-384.82	1090.1	357.39	-369.35	1099.3	225.05	-393.43	1064.8	289.39	-170.66	1149.3	104.08	-220.07	1199.6	499.22	-225.21	950.84	105.99	-229.5	989.26	537	-88.082	598.92	493.67	-44.564	599.27	366.58	-262.46	559.18	346.02	-277.67	562.19	188.08	135.31	121.67	433.67	-206.21	78.087	272.66	60.219	89.149	381.09	-289.46	56.368	324.75	-315.65	47.898	197.4	22.811	80.265	509.59	-101.15	129.59	474.51	-82.991	138.26	373.82	-399.81	140.55	301.26	-430.78	134.93	233.55	-526.85	92.663	273.37	-186.16	80.763	407.16	-518.24	63.125	242.1	-179.2	59.5	443.64	-509.48	61.666	305.99	-170.82	55.342	384.44	-178.58	423.02	487.76	-112.5	415.35	517.54	-106.78	340.76	503.97	-159.6	341.87	484.53	-210.36	840.83	522.25	-153.87	884.13	528.2	-116.67	800.74	524.24	-171.8	759.99	515.78	-251.67	472.23	205.75	-305.01	484.03	192.85	-325.58	425.43	203.56	-272.26	420.67	214.49	-183.68	805.01	151.72	-251.74	818.99	133.8	-251.21	743.78	149.5	-188.74	731.99	165.55
121	0.50162	94.932	1745.7	306.43	-167.83	1565.9	510.08	-131.95	1553.5	51.922	-174.36	1100.1	493.51	-148.77	1024.5	145.35	-379.49	1089.6	358.08	-364.22	1099	225.73	-388.26	1064.5	290.07	-165.66	1148.8	104.39	-214.73	1198.9	499.67	-220.68	950.4	106.26	-223.88	988.49	537.39	-82.291	598.2	492.86	-39.048	599.01	365.68	-260.2	558.86	346.23	-275.34	561.94	188.27	151.32	125.69	433.45	-206.05	77.944	272.7	76.93	91.591	380.89	-289.34	56.352	324.73	-315.56	47.942	197.42	39.818	81.818	509.43	-85.21	128.42	474.41	-67.296	137.53	373.72	-399.28	140.87	301.28	-430.33	135.38	233.55	-526.62	93.167	273.33	-169.15	77.741	407.08	-518.11	63.606	242.07	-161.72	56.615	443.59	-509.36	62.157	305.97	-153.25	52.688	384.43	-169.28	420.31	487.08	-103.11	414.1	516.96	-95.766	339.63	503.49	-148.57	339.59	483.98	-205	839.97	522.16	-148.38	883.24	528.28	-111.19	799.85	523.96	-166.33	759.15	515.36	-249.73	471.9	205.91	-303.01	483.94	193	-323.85	425.42	203.69	-270.54	420.41	214.63	-179.95	804.41	151.94	-247.94	818.74	134.07	-247.75	743.53	149.7	-185.38	731.43	165.72
122	0.5058	100.55	1744.9	307.07	-162.4	1565.4	510.48	-126.29	1553.1	52.424	-168.69	1099.3	493.88	-143.91	1023.8	145.59	-374.11	1089.2	358.81	-359.07	1098.7	226.44	-383.05	1064.1	290.79	-160.65	1148.2	104.7	-209.32	1198.2	500.14	-216.15	949.95	106.53	-218.23	987.68	537.79	-76.6	597.42	492.04	-33.616	598.68	364.76	-257.91	558.53	346.42	-272.99	561.68	188.45	167.09	129.88	433.24	-205.89	77.798	272.73	93.457	94.214	380.7	-289.22	56.337	324.71	-315.48	47.987	197.43	56.646	83.555	509.26	-69.392	127.41	474.3	-51.711	136.95	373.6	-398.76	141.19	301.29	-429.88	135.83	233.56	-526.39	93.686	273.3	-152.22	74.911	406.97	-517.97	64.101	242.05	-144.31	53.928	443.51	-509.24	62.663	305.95	-135.75	50.236	384.4	-160.04	417.62	486.36	-93.818	412.86	516.36	-84.858	338.56	502.99	-137.62	337.37	483.39	-199.67	839.05	522.08	-142.91	882.27	528.37	-105.74	798.89	523.69	-160.9	758.24	514.95	-247.78	471.55	206.05	-301	483.84	193.14	-322.1	425.41	203.81	-268.82	420.15	214.76	-176.23	803.79	152.14	-244.14	818.47	134.33	-244.29	743.26	149.89	-182.02	730.86	165.88
123	0.50998	106.19	1744.1	307.71	-156.95	1564.8	510.9	-120.64	1552.7	52.939	-162.97	1098.5	494.27	-139.05	1023.2	145.83	-368.7	1088.8	359.57	-353.88	1098.3	227.18	-377.82	1063.8	291.54	-155.64	1147.7	105.01	-203.86	1197.5	500.62	-211.63	949.49	106.81	-212.54	986.83	538.19	-71.008	596.56	491.23	-28.27	598.29	363.85	-255.6	558.18	346.6	-270.62	561.42	188.63	182.63	134.22	433.04	-205.73	77.649	272.76	109.79	97.013	380.5	-289.11	56.325	324.69	-315.39	48.034	197.44	73.285	85.476	509.1	-53.703	126.58	474.16	-36.244	136.52	373.47	-398.23	141.52	301.31	-429.42	136.29	233.56	-526.16	94.223	273.27	-135.38	72.27	406.83	-517.83	64.612	242.02	-126.99	51.438	443.4	-509.11	63.185	305.93	-118.32	47.982	384.32	-150.87	414.95	485.61	-84.625	411.63	515.74	-74.059	337.53	502.47	-126.75	335.21	482.78	-194.37	838.1	522.01	-137.46	881.24	528.47	-100.33	797.86	523.44	-155.53	757.28	514.55	-245.82	471.2	206.19	-298.97	483.73	193.28	-320.34	425.4	203.92	-267.08	419.89	214.88	-172.5	803.16	152.35	-240.35	818.2	134.59	-240.82	742.98	150.08	-178.66	730.27	166.03
